Simulation
nRows=40
nColumns=15
endheader
time  TH_x TH_y TH_z SC_y  SC_z  SC_x  AC_y  AC_z  AC_x  GH_y  GH_z  GH_yy  EL_x  PS_y
0.595  0.000000  0.000000  0.000000  -36.42957898749754  3.486094904218609  5.668363356267557  56.18151714775451  7.409019653506411  -6.852045986861601  -3.6772301482363354  34.61952626857195  7.385866284885459  24.351709906737742  0.000000
0.6069  0.000000  0.000000  0.000000  -36.613804518052206  3.626549458939876  5.90885989617482  56.22075139343048  7.33183814593854  -6.839267533167552  -3.748919697002235  35.24856323728458  7.143771398218269  24.17710382777868  0.000000
0.6187999999999999  0.000000  0.000000  0.000000  -36.79415247022294  3.78235432373111  6.163520510362643  56.221038313589084  7.225020717728519  -6.825066084143216  -3.8378240789630915  35.84320972298126  6.942975920380083  23.99274083617064  0.000000
0.6306999999999999  0.000000  0.000000  0.000000  -36.997610710565624  3.958312763165463  6.438599893772996  56.23375874160096  7.093926158056985  -6.817638269417506  -3.945358360097754  36.4036110828045  6.782884648139734  23.799270923538774  0.000000
0.6426  0.000000  0.000000  0.000000  -37.19706263538793  4.153290899543227  6.735148483519775  56.20571717564955  6.926733004284055  -6.810767026908471  -4.070476450082104  36.92884382307309  6.667655645690478  23.598601597940625  0.000000
0.6545  0.000000  0.000000  0.000000  -37.42131354561288  4.371470305858289  7.0599293198024515  56.19087289358435  6.729216735091461  -6.81410055746994  -4.211540657747074  37.42099188041251  6.596218491644524  23.390490370034314  0.000000
0.6664  0.000000  0.000000  0.000000  -37.64502496672256  4.612445424171999  7.412739274722213  56.13634010555918  6.491592575349272  -6.817680916268549  -4.365117306859642  37.879200509087156  6.570893443364801  23.177720502433107  0.000000
0.6782999999999999  0.000000  0.000000  0.000000  -37.89786111855775  4.8810719320199  7.800821673212716  56.09460086600128  6.218810564929484  -6.831108513234103  -4.524445391131703  38.308408856712994  6.5890784243727225  22.961959270779936  0.000000
0.6901999999999999  0.000000  0.000000  0.000000  -38.160599579160184  5.171293437507472  8.231149661765915  56.02252181096678  5.903730095551735  -6.850399110644623  -4.683028573130066  38.7054880842246  6.6496254242161585  22.74487459771714  0.000000
0.7021  0.000000  0.000000  0.000000  -38.46550234552633  5.486876800357988  8.714854061839953  55.96952430445505  5.55116520496172  -6.881958765394371  -4.83286429698997  39.07527438855839  6.758392751956638  22.53118870958218  0.000000
0.714  0.000000  0.000000  0.000000  -38.777002907494925  5.839407153771501  9.246789590242253  55.88518451164702  5.145870787943904  -6.918687944029902  -4.962633305991772  39.414141623773055  6.904187101632732  22.320193798332042  0.000000
0.7259  0.000000  0.000000  0.000000  -39.12953755603279  6.234339728984176  9.839200437707552  55.80493537024369  4.6888182178763245  -6.956686106059884  -5.0590830656632555  39.72901119079805  7.088213312189724  22.12558483641044  0.000000
0.7377999999999999  0.000000  0.000000  0.000000  -39.54429846580502  6.631658500191884  10.475982516437517  55.731842175629545  4.22035932213915  -6.999594725358233  -5.086923918115972  40.022789340292  7.293226923926346  21.93980749634667  0.000000
0.7496999999999999  0.000000  0.000000  0.000000  -40.05476485413815  7.028177178179104  11.18637874626827  55.70798026618205  3.749154135649519  -7.049190980932467  -5.049974003101446  40.28891446733495  7.539687865116259  21.78228675147912  0.000000
0.7615999999999999  0.000000  0.000000  0.000000  -40.568973699849565  7.479831639408242  11.868980915023037  55.62959108417119  3.275523485599086  -7.062747477518117  -4.91653001995264  40.54872133533819  7.812304381071339  21.657254221148207  0.000000
0.7735  0.000000  0.000000  0.000000  -41.10499721915795  7.994522834060341  12.485790966722472  55.51998499312783  2.807574840236576  -7.027234736975433  -4.65505341361882  40.8432273809701  8.070200506416011  21.59198586954886  0.000000
0.7854  0.000000  0.000000  0.000000  -41.854289261061346  8.403176570218653  13.377143149595831  55.547161111983876  2.3272130675237923  -7.075052380433473  -4.254670663566982  41.07823107134343  8.397620984788803  21.588020927791526  0.000000
0.7972999999999999  0.000000  0.000000  0.000000  -42.8632175864904  8.694808084795671  14.77009401361499  55.84716626459336  1.7429842773777338  -7.299676771569514  -3.718883538882195  41.18816936763956  8.801183300884984  21.6110164647127  0.000000
0.8091999999999999  0.000000  0.000000  0.000000  -43.55877591626758  9.09978453788077  15.689652090420632  55.84150764171325  1.4314927790805951  -7.344135992752514  -3.0590747384280297  41.38845583329027  9.337399734528972  21.82836251064775  0.000000
0.8210999999999999  0.000000  0.000000  0.000000  -43.91351903091712  9.680195908756321  15.751206976442628  55.723958725398504  1.598917006235192  -7.200538347170348  -2.108625276051294  41.76827889366766  9.781731682223024  22.193184450610627  0.000000
0.833  0.000000  0.000000  0.000000  -44.7575686503978  10.037049650519123  17.231533219964177  56.15978670587689  1.0962960200406189  -7.316755938755489  -1.0101314706965958  41.923785789345374  10.319382887395099  22.59680201871027  0.000000
0.8449  0.000000  0.000000  0.000000  -45.95418175616909  10.2913016606936  20.599215725670753  56.67367574816757  -0.2769826125390894  -7.504952217133567  0.038945722909055486  41.63050962338011  11.564940142237067  23.488506082033044  0.000000
0.8567999999999999  0.000000  0.000000  0.000000  -46.511754926887875  11.357444873213899  22.667227164855028  57.388580609850635  -0.9986029742070086  -7.516183491916054  1.675002213855484  41.46074273017803  12.807982017222049  25.09832230526905  0.000000
0.8686999999999999  0.000000  0.000000  0.000000  -47.104417997940814  13.319541670226387  23.420824834601717  59.16888206943861  -1.1136256689647117  -7.496632430431402  4.778228792370715  41.762437573603314  12.684285635165788  27.661604754315483  0.000000
0.8805999999999999  0.000000  0.000000  0.000000  -49.037445561863045  14.628742111625629  25.771887452981556  61.92968018558528  -1.6407920154858102  -6.719342320439701  9.399851281521205  42.097011315437044  11.298007690548271  31.074884136333885  0.000000
0.8925  0.000000  0.000000  0.000000  -52.75729359268796  14.52131850655081  29.67394380592838  63.30323609448126  -2.9590781387048057  -3.125357210878169  16.465265484546393  42.05877558181833  6.922725194847626  35.89749171819022  0.000000
0.9044  0.000000  0.000000  0.000000  -59.265081298914794  13.705187835008593  35.24066747149193  65.79045365274392  -5.1690293162711765  1.3427632928896196  28.733938206539314  42.431341955488854  -2.375377178172146  40.781104504423816  0.000000
0.9162999999999999  0.000000  0.000000  0.000000  -63.31863231118365  12.50862474394108  43.40445597132398  74.20224032320424  -5.403348805369232  2.360421453808404  40.61244294524024  44.11948940872659  -14.044535921914802  42.72504585585261  0.000000
0.9281999999999999  0.000000  0.000000  0.000000  -53.59626360485294  13.583860151865753  48.148441878630486  80.13233413390304  -3.7415977493421186  2.532870692196133  41.463564473746516  44.49202526040571  -20.70044614121113  39.072604682571956  0.000000
0.9400999999999999  0.000000  0.000000  0.000000  -30.549030459627136  16.110536364126922  46.377369319812885  76.32484874471423  -1.7157981045797788  6.9964787866787495  30.788969679460124  39.65090775555874  -16.446583558157723  27.821355846077388  0.000000
0.952  0.000000  0.000000  0.000000  -3.1651275889769055  18.479753220712038  39.96860866078573  57.47502023612978  -1.4215700592203122  16.28515225940758  15.869850633566948  33.703984345919515  -10.09502170069003  18.52828476202508  0.000000
0.9639  0.000000  0.000000  0.000000  12.511441173283107  19.114055057953134  35.274184128439295  35.609355993653516  -5.494928014546715  22.110387808659976  12.209115672710348  30.99836238821023  -15.05407730094365  16.722580434905478  0.000000
0.9757999999999999  0.000000  0.000000  0.000000  14.718026314129872  22.43956091995244  34.64098009036838  25.37349832851577  -9.047475844356054  21.287268348094578  16.966221724712113  28.32999487160113  -20.88555337440296  18.79253381416918  0.000000
0.9876999999999999  0.000000  0.000000  0.000000  15.634143303308248  26.324645319285167  34.343916789821556  19.47954323389553  -11.027162375119376  17.8811984145038  16.097478587997422  26.85870167879004  -15.15399692289224  22.051926118540376  0.000000
0.9995999999999999  0.000000  0.000000  0.000000  17.56535183467066  24.979487960998828  32.054881033851345  15.683713177227492  -9.716212895152173  15.147449692209378  15.79710302996952  28.584254603275156  -11.080645704555142  24.086800288899887  0.000000
1.0114999999999998  0.000000  0.000000  0.000000  18.309073105283257  23.876925001277186  27.315321005833233  12.966914361550304  -6.788322078309198  13.688803606758913  20.11504919787459  29.778084870553542  -13.710145507204528  24.75986510448648  0.000000
1.0233999999999999  0.000000  0.000000  0.000000  18.19343785851215  24.51831790685413  23.66773454729827  11.223473637822833  -4.343063258570091  11.873006896208079  23.25739170172523  30.496906212283786  -15.184709415703239  24.511055789396977  0.000000
1.0352999999999999  0.000000  0.000000  0.000000  17.55920421479121  24.668168891600473  21.164753947355283  10.366966374065212  -1.9737347265706784  10.04528587100722  24.108946681725246  31.411295633292927  -14.994474455396738  24.21147246135736  0.000000
1.0472  0.000000  0.000000  0.000000  17.054831399516768  24.602797194511798  18.986186067267848  9.715382743205824  0.43039748567700475  8.278754203404054  23.694139048750166  32.562786475515864  -14.28738718687614  23.887331337721005  0.000000
1.0591  0.000000  0.000000  0.000000  16.80737922937939  24.634478312024882  16.89938553537677  9.098267272732286  2.7038283582111475  6.60711987319844  22.137028435307343  33.66002557291047  -12.981945483225523  23.46811076839809  0.000000
